<svg xmlns="http://www.w3.org/2000/svg" xmlns:xlink="http://www.w3.org/1999/xlink" width="600" zoomAndPan="magnify" viewBox="0 0 450 449.999984" height="600" preserveAspectRatio="xMidYMid meet" version="1.0"><path fill="#4285f4" d="M 48.507812 378.210938 L 113.691406 378.210938 L 113.691406 220.179688 L 20.464844 150.828125 L 20.464844 350.546875 C 20.464844 365.703125 32.96875 378.210938 48.507812 378.210938 Z M 48.507812 378.210938 " fill-opacity="1" fill-rule="nonzero"/><path fill="#34a853" d="M 336.523438 378.210938 L 401.707031 378.210938 C 417.246094 378.210938 429.75 365.703125 429.75 350.167969 L 429.75 150.828125 L 336.902344 220.558594 L 336.902344 378.210938 Z M 336.523438 378.210938 " fill-opacity="1" fill-rule="nonzero"/><path fill="#fbbc04" d="M 336.523438 99.667969 L 336.523438 220.558594 L 429.371094 150.828125 L 429.371094 113.691406 C 429.371094 79.203125 389.957031 59.496094 362.292969 80.339844 Z M 336.523438 99.667969 " fill-opacity="1" fill-rule="nonzero"/><path fill="#ea4335" d="M 113.3125 220.179688 L 113.3125 99.667969 L 224.726562 183.421875 L 336.144531 99.667969 L 336.144531 220.558594 L 225.105469 303.933594 Z M 113.3125 220.179688 " fill-opacity="1" fill-rule="evenodd"/><path fill="#c5221f" d="M 20.464844 113.3125 L 20.464844 150.449219 L 113.3125 220.179688 L 113.3125 99.667969 L 87.160156 79.960938 C 59.875 59.496094 20.464844 79.203125 20.464844 113.3125 Z M 20.464844 113.3125 " fill-opacity="1" fill-rule="nonzero"/></svg>