<svg xmlns="http://www.w3.org/2000/svg" xmlns:xlink="http://www.w3.org/1999/xlink" width="1200" zoomAndPan="magnify" viewBox="0 0 900 449.999984" height="600" preserveAspectRatio="xMidYMid meet" version="1.0"><defs><g/></defs><rect x="-90" width="1080" fill="#ffffff" y="-44.999998" height="539.99998" fill-opacity="1"/><rect x="-90" width="1080" fill="#ffffff" y="-44.999998" height="539.99998" fill-opacity="1"/><g fill="#000000" fill-opacity="1"><g transform="translate(421.757791, 233.999982)"><g><path d="M 2.015625 0 L 2.015625 -14 L 5.390625 -14 L 5.390625 -12.125 L 5.65625 -12.078125 C 6.113281 -12.828125 6.648438 -13.378906 7.265625 -13.734375 C 7.878906 -14.085938 8.664062 -14.265625 9.625 -14.265625 C 10.675781 -14.265625 11.523438 -14.054688 12.171875 -13.640625 C 12.816406 -13.222656 13.285156 -12.613281 13.578125 -11.8125 L 13.84375 -11.8125 C 14.28125 -12.644531 14.835938 -13.257812 15.515625 -13.65625 C 16.203125 -14.0625 17.050781 -14.265625 18.0625 -14.265625 C 20.96875 -14.265625 22.421875 -12.648438 22.421875 -9.421875 L 22.421875 0 L 18.90625 0 L 18.90625 -8.96875 C 18.90625 -9.789062 18.742188 -10.382812 18.421875 -10.75 C 18.097656 -11.113281 17.582031 -11.296875 16.875 -11.296875 C 14.945312 -11.296875 13.984375 -10.003906 13.984375 -7.421875 L 13.984375 0 L 10.46875 0 L 10.46875 -8.96875 C 10.46875 -9.789062 10.300781 -10.382812 9.96875 -10.75 C 9.644531 -11.113281 9.128906 -11.296875 8.421875 -11.296875 C 7.515625 -11.296875 6.804688 -10.992188 6.296875 -10.390625 C 5.785156 -9.785156 5.53125 -8.820312 5.53125 -7.5 L 5.53125 0 Z M 2.015625 0 "/></g></g></g><g fill="#000000" fill-opacity="1"><g transform="translate(445.973167, 233.999982)"><g><path d="M 2.015625 0 L 2.015625 -14 L 5.390625 -14 L 5.390625 -12.125 L 5.65625 -12.078125 C 6.113281 -12.828125 6.648438 -13.378906 7.265625 -13.734375 C 7.878906 -14.085938 8.664062 -14.265625 9.625 -14.265625 C 10.675781 -14.265625 11.523438 -14.054688 12.171875 -13.640625 C 12.816406 -13.222656 13.285156 -12.613281 13.578125 -11.8125 L 13.84375 -11.8125 C 14.28125 -12.644531 14.835938 -13.257812 15.515625 -13.65625 C 16.203125 -14.0625 17.050781 -14.265625 18.0625 -14.265625 C 20.96875 -14.265625 22.421875 -12.648438 22.421875 -9.421875 L 22.421875 0 L 18.90625 0 L 18.90625 -8.96875 C 18.90625 -9.789062 18.742188 -10.382812 18.421875 -10.75 C 18.097656 -11.113281 17.582031 -11.296875 16.875 -11.296875 C 14.945312 -11.296875 13.984375 -10.003906 13.984375 -7.421875 L 13.984375 0 L 10.46875 0 L 10.46875 -8.96875 C 10.46875 -9.789062 10.300781 -10.382812 9.96875 -10.75 C 9.644531 -11.113281 9.128906 -11.296875 8.421875 -11.296875 C 7.515625 -11.296875 6.804688 -10.992188 6.296875 -10.390625 C 5.785156 -9.785156 5.53125 -8.820312 5.53125 -7.5 L 5.53125 0 Z M 2.015625 0 "/></g></g></g><g fill="#000000" fill-opacity="1"><g transform="translate(470.188543, 233.999982)"><g><path d="M 5.8125 0.265625 C 4.550781 0.265625 3.585938 -0.0703125 2.921875 -0.75 C 2.265625 -1.4375 1.9375 -2.472656 1.9375 -3.859375 L 1.9375 -19.625 L 5.453125 -19.625 L 5.453125 -4 C 5.453125 -3.144531 5.804688 -2.71875 6.515625 -2.71875 C 6.710938 -2.71875 6.925781 -2.75 7.15625 -2.8125 L 7.34375 -2.765625 L 7.65625 -0.0625 C 7.457031 0.0390625 7.195312 0.117188 6.875 0.171875 C 6.5625 0.234375 6.207031 0.265625 5.8125 0.265625 Z M 5.8125 0.265625 "/></g></g></g><path fill="#ffffff" d="M 0.269531 -74.765625 L 899.730469 -74.765625 L 899.730469 525.234375 L 0.269531 525.234375 Z M 0.269531 -74.765625 " fill-opacity="1" fill-rule="nonzero"/><path stroke-linecap="butt" transform="matrix(0.401544, 0, 0, 0.401795, 0.271242, -74.766088)" fill="none" stroke-linejoin="miter" d="M 79.999522 53.33608 L 2240.004391 53.33608 M 2240.004391 266.666073 L 79.999522 266.666073 M 79.999522 479.996065 L 2240.004391 479.996065 M 2240.004391 693.326058 L 79.999522 693.326058 " stroke="#cc0000" stroke-width="92.375999" stroke-opacity="1" stroke-miterlimit="4"/><path fill="#000066" d="M 0.269531 -74.765625 L 450 -74.765625 L 450 289.523438 L 0.269531 289.523438 Z M 0.269531 -74.765625 " fill-opacity="1" fill-rule="nonzero"/><path stroke-linecap="butt" transform="matrix(0.401544, 0, 0, 0.401795, 0.271242, -74.766088)" fill="none" stroke-linejoin="miter" d="M -0.00426143 906.65605 L 2240.004391 906.65605 M 2240.004391 1119.986043 L -0.00426143 1119.986043 M -0.00426143 1333.316035 L 2240.004391 1333.316035 " stroke="#cc0000" stroke-width="92.375999" stroke-opacity="1" stroke-miterlimit="4"/><path fill="#ffcc00" d="M 287.503906 9.296875 L 295.433594 62.589844 L 326.121094 17.960938 L 309.664062 69.363281 L 357.027344 42.203125 L 319.523438 81.519531 L 374.222656 77.226562 L 323.078125 96.664062 L 374.222656 116.105469 L 319.523438 111.808594 L 357.027344 151.125 L 309.664062 123.96875 L 326.121094 175.371094 L 295.433594 130.738281 L 287.503906 184.03125 L 279.574219 130.738281 L 248.886719 175.371094 L 265.339844 123.96875 L 217.980469 151.125 L 255.484375 111.808594 L 200.78125 116.105469 L 251.925781 96.664062 L 200.78125 77.226562 L 255.484375 81.519531 L 217.980469 42.203125 L 265.339844 69.363281 L 248.886719 17.960938 L 279.574219 62.589844 Z M 243.027344 11.480469 C 241.230469 10.699219 239.410156 9.972656 237.570312 9.296875 C 235.726562 8.625 233.863281 8.011719 231.980469 7.453125 C 230.101562 6.894531 228.203125 6.394531 226.289062 5.953125 C 224.375 5.507812 222.449219 5.125 220.511719 4.800781 C 218.574219 4.476562 216.628906 4.210938 214.671875 4.003906 C 212.71875 3.796875 210.757812 3.652344 208.796875 3.566406 C 206.832031 3.480469 204.867188 3.453125 202.902344 3.484375 C 200.9375 3.519531 198.972656 3.613281 197.015625 3.765625 C 195.054688 3.917969 193.101562 4.132812 191.15625 4.40625 C 189.210938 4.675781 187.273438 5.007812 185.347656 5.398438 C 183.425781 5.789062 181.511719 6.238281 179.617188 6.746094 C 177.71875 7.253906 175.839844 7.820312 173.980469 8.441406 C 172.117188 9.0625 170.277344 9.742188 168.460938 10.476562 C 166.644531 11.210938 164.851562 12 163.082031 12.84375 C 161.3125 13.6875 159.574219 14.585938 157.863281 15.535156 C 156.152344 16.484375 154.472656 17.484375 152.824219 18.539062 C 151.175781 19.589844 149.5625 20.695312 147.984375 21.84375 C 146.40625 22.996094 144.867188 24.195312 143.363281 25.441406 C 141.859375 26.683594 140.398438 27.972656 138.980469 29.308594 C 137.558594 30.644531 136.179688 32.019531 134.847656 33.4375 C 133.511719 34.855469 132.226562 36.316406 130.984375 37.8125 C 129.742188 39.308594 128.550781 40.84375 127.40625 42.414062 C 126.261719 43.984375 125.167969 45.585938 124.125 47.222656 C 123.082031 48.859375 122.089844 50.527344 121.152344 52.222656 C 120.214844 53.921875 119.332031 55.644531 118.503906 57.398438 C 117.675781 59.148438 116.90625 60.921875 116.1875 62.722656 C 115.472656 64.519531 114.8125 66.339844 114.214844 68.175781 C 113.613281 70.015625 113.070312 71.871094 112.585938 73.742188 C 112.101562 75.613281 111.679688 77.496094 111.3125 79.394531 C 110.949219 81.292969 110.644531 83.199219 110.402344 85.117188 C 110.160156 87.03125 109.976562 88.953125 109.855469 90.878906 C 109.730469 92.808594 109.671875 94.738281 109.671875 96.667969 C 109.671875 98.597656 109.730469 100.527344 109.855469 102.457031 C 109.976562 104.382812 110.160156 106.304688 110.402344 108.21875 C 110.644531 110.136719 110.949219 112.042969 111.3125 113.941406 C 111.679688 115.839844 112.101562 117.722656 112.585938 119.59375 C 113.070312 121.464844 113.613281 123.320312 114.214844 125.160156 C 114.8125 127 115.472656 128.816406 116.1875 130.613281 C 116.90625 132.414062 117.675781 134.1875 118.503906 135.9375 C 119.332031 137.691406 120.214844 139.414062 121.152344 141.113281 C 122.089844 142.808594 123.082031 144.476562 124.125 146.113281 C 125.167969 147.75 126.261719 149.351562 127.40625 150.921875 C 128.550781 152.492188 129.742188 154.027344 130.984375 155.523438 C 132.226562 157.019531 133.511719 158.480469 134.847656 159.898438 C 136.179688 161.316406 137.558594 162.691406 138.980469 164.027344 C 140.398438 165.363281 141.859375 166.652344 143.363281 167.898438 C 144.867188 169.140625 146.40625 170.339844 147.984375 171.492188 C 149.5625 172.644531 151.175781 173.746094 152.824219 174.796875 C 154.472656 175.851562 156.152344 176.851562 157.863281 177.800781 C 159.574219 178.75 161.3125 179.648438 163.082031 180.492188 C 164.851562 181.335938 166.644531 182.125 168.460938 182.859375 C 170.277344 183.59375 172.117188 184.273438 173.980469 184.894531 C 175.839844 185.515625 177.71875 186.082031 179.617188 186.589844 C 181.511719 187.097656 183.425781 187.546875 185.347656 187.9375 C 187.273438 188.328125 189.210938 188.660156 191.15625 188.929688 C 193.101562 189.203125 195.054688 189.417969 197.015625 189.570312 C 198.972656 189.722656 200.9375 189.816406 202.902344 189.851562 C 204.867188 189.882812 206.832031 189.855469 208.796875 189.769531 C 210.761719 189.683594 212.71875 189.539062 214.671875 189.332031 C 216.628906 189.125 218.574219 188.859375 220.511719 188.535156 C 222.449219 188.210938 224.375 187.828125 226.289062 187.382812 C 228.203125 186.941406 230.101562 186.441406 231.980469 185.882812 C 233.863281 185.324219 235.726562 184.710938 237.570312 184.039062 C 239.410156 183.367188 241.230469 182.636719 243.027344 181.855469 C 241.707031 182.785156 240.367188 183.6875 239.003906 184.558594 C 237.640625 185.429688 236.257812 186.269531 234.855469 187.078125 C 233.453125 187.886719 232.03125 188.664062 230.59375 189.40625 C 229.15625 190.152344 227.703125 190.863281 226.230469 191.542969 C 224.757812 192.222656 223.273438 192.871094 221.773438 193.484375 C 220.269531 194.097656 218.753906 194.675781 217.226562 195.21875 C 215.699219 195.765625 214.160156 196.273438 212.605469 196.75 C 211.054688 197.226562 209.492188 197.667969 207.917969 198.074219 C 206.347656 198.480469 204.765625 198.847656 203.175781 199.183594 C 201.585938 199.519531 199.988281 199.816406 198.386719 200.082031 C 196.78125 200.34375 195.171875 200.570312 193.558594 200.761719 C 191.945312 200.953125 190.328125 201.105469 188.707031 201.226562 C 187.085938 201.34375 185.460938 201.425781 183.835938 201.46875 C 182.210938 201.515625 180.585938 201.523438 178.960938 201.496094 C 177.335938 201.46875 175.710938 201.40625 174.085938 201.304688 C 172.464844 201.203125 170.84375 201.066406 169.230469 200.894531 C 167.613281 200.71875 166 200.511719 164.394531 200.265625 C 162.789062 200.019531 161.1875 199.738281 159.59375 199.421875 C 158 199.105469 156.414062 198.75 154.839844 198.363281 C 153.261719 197.972656 151.695312 197.550781 150.136719 197.089844 C 148.582031 196.632812 147.035156 196.136719 145.5 195.609375 C 143.964844 195.082031 142.445312 194.519531 140.9375 193.921875 C 139.429688 193.324219 137.933594 192.695312 136.457031 192.03125 C 134.976562 191.367188 133.515625 190.671875 132.066406 189.941406 C 130.621094 189.214844 129.191406 188.453125 127.78125 187.660156 C 126.371094 186.867188 124.980469 186.039062 123.605469 185.183594 C 122.234375 184.328125 120.882812 183.441406 119.550781 182.527344 C 118.21875 181.609375 116.910156 180.664062 115.621094 179.6875 C 114.335938 178.710938 113.070312 177.707031 111.828125 176.675781 C 110.589844 175.644531 109.371094 174.585938 108.179688 173.5 C 106.988281 172.410156 105.824219 171.300781 104.683594 170.160156 C 103.542969 169.019531 102.433594 167.855469 101.347656 166.667969 C 100.261719 165.480469 99.203125 164.265625 98.175781 163.03125 C 97.144531 161.792969 96.144531 160.535156 95.175781 159.253906 C 94.203125 157.972656 93.265625 156.667969 92.355469 155.34375 C 91.445312 154.023438 90.566406 152.679688 89.71875 151.316406 C 88.871094 149.953125 88.054688 148.570312 87.273438 147.171875 C 86.488281 145.773438 85.738281 144.355469 85.023438 142.921875 C 84.304688 141.488281 83.621094 140.039062 82.972656 138.578125 C 82.320312 137.113281 81.707031 135.636719 81.125 134.144531 C 80.542969 132.652344 79.996094 131.148438 79.484375 129.632812 C 78.972656 128.117188 78.5 126.589844 78.058594 125.050781 C 77.617188 123.515625 77.214844 121.96875 76.847656 120.414062 C 76.476562 118.855469 76.144531 117.292969 75.851562 115.722656 C 75.554688 114.152344 75.296875 112.578125 75.074219 110.996094 C 74.851562 109.414062 74.667969 107.824219 74.519531 106.234375 C 74.371094 104.644531 74.257812 103.050781 74.183594 101.457031 C 74.109375 99.863281 74.074219 98.265625 74.074219 96.667969 C 74.074219 95.070312 74.109375 93.476562 74.183594 91.878906 C 74.257812 90.285156 74.371094 88.691406 74.519531 87.101562 C 74.667969 85.511719 74.851562 83.925781 75.074219 82.34375 C 75.296875 80.757812 75.554688 79.183594 75.851562 77.613281 C 76.144531 76.042969 76.476562 74.480469 76.847656 72.925781 C 77.214844 71.367188 77.617188 69.820312 78.058594 68.285156 C 78.5 66.746094 78.972656 65.21875 79.484375 63.703125 C 79.996094 62.1875 80.542969 60.683594 81.125 59.191406 C 81.707031 57.699219 82.320312 56.222656 82.972656 54.757812 C 83.621094 53.296875 84.304688 51.847656 85.023438 50.414062 C 85.738281 48.980469 86.488281 47.5625 87.273438 46.164062 C 88.054688 44.765625 88.871094 43.382812 89.71875 42.019531 C 90.566406 40.65625 91.445312 39.3125 92.355469 37.992188 C 93.265625 36.667969 94.203125 35.363281 95.175781 34.082031 C 96.144531 32.800781 97.144531 31.542969 98.175781 30.304688 C 99.203125 29.070312 100.261719 27.859375 101.347656 26.667969 C 102.433594 25.480469 103.542969 24.316406 104.683594 23.175781 C 105.824219 22.039062 106.988281 20.925781 108.179688 19.835938 C 109.371094 18.75 110.589844 17.691406 111.828125 16.660156 C 113.070312 15.628906 114.335938 14.625 115.621094 13.648438 C 116.910156 12.671875 118.21875 11.726562 119.550781 10.808594 C 120.882812 9.894531 122.234375 9.007812 123.605469 8.152344 C 124.980469 7.296875 126.371094 6.472656 127.78125 5.675781 C 129.191406 4.882812 130.621094 4.121094 132.066406 3.394531 C 133.515625 2.664062 134.976562 1.96875 136.457031 1.304688 C 137.933594 0.640625 139.429688 0.0117188 140.9375 -0.585938 C 142.445312 -1.183594 143.964844 -1.746094 145.5 -2.273438 C 147.035156 -2.800781 148.582031 -3.296875 150.136719 -3.753906 C 151.695312 -4.214844 153.261719 -4.636719 154.839844 -5.027344 C 156.414062 -5.414062 158 -5.765625 159.59375 -6.085938 C 161.1875 -6.402344 162.789062 -6.683594 164.394531 -6.929688 C 166 -7.175781 167.613281 -7.382812 169.230469 -7.558594 C 170.84375 -7.730469 172.464844 -7.867188 174.085938 -7.96875 C 175.710938 -8.070312 177.335938 -8.132812 178.960938 -8.160156 C 180.585938 -8.1875 182.210938 -8.179688 183.835938 -8.132812 C 185.460938 -8.089844 187.085938 -8.007812 188.707031 -7.890625 C 190.328125 -7.769531 191.945312 -7.617188 193.558594 -7.425781 C 195.171875 -7.234375 196.78125 -7.007812 198.386719 -6.746094 C 199.988281 -6.480469 201.585938 -6.183594 203.175781 -5.847656 C 204.765625 -5.511719 206.347656 -5.144531 207.917969 -4.738281 C 209.492188 -4.332031 211.054688 -3.890625 212.605469 -3.414062 C 214.160156 -2.9375 215.699219 -2.429688 217.226562 -1.882812 C 218.753906 -1.339844 220.269531 -0.761719 221.773438 -0.148438 C 223.273438 0.464844 224.757812 1.113281 226.230469 1.792969 C 227.703125 2.472656 229.15625 3.183594 230.59375 3.929688 C 232.03125 4.675781 233.453125 5.449219 234.855469 6.257812 C 236.257812 7.066406 237.640625 7.90625 239.003906 8.777344 C 240.367188 9.648438 241.707031 10.550781 243.027344 11.480469 Z M 243.027344 11.480469 " fill-opacity="1" fill-rule="nonzero"/></svg>